<svg width="450" height="450" viewBox="0 0 450 450" fill="none" xmlns="http://www.w3.org/2000/svg">
<circle cx="75" cy="75" r="75" transform="matrix(-1 0 0 1 300 150)" fill="black"/>
<path d="M263.035 49.5553C259.767 49.1884 256.446 49 253.08 49C217.038 49 186.038 70.6094 172.307 101.588C167.456 112.535 164.76 124.652 164.76 137.399C164.76 162.584 175.282 185.308 192.167 201.409C192.339 201.574 192.512 201.738 192.686 201.901C161.612 196.885 137.88 169.916 137.88 137.399C137.88 132.412 138.438 127.555 139.496 122.888C121.901 140.305 111 164.482 111 191.207C111 235.615 141.099 272.987 181.992 284C173.622 273.919 168.6 261.029 168.6 246.981C168.6 230.721 175.329 216.011 186.189 205.414C185.537 208.254 185.192 211.209 185.192 214.243C185.192 234.027 199.841 250.435 219.022 253.487C218.915 253.388 218.808 253.288 218.702 253.188C208.279 243.392 201.784 229.566 201.784 214.243C201.784 206.487 203.448 199.115 206.443 192.455C214.919 173.607 234.054 160.459 256.301 160.459C258.379 160.459 260.429 160.574 262.446 160.797C260.78 161.865 259.02 162.916 257.232 163.985C247.232 169.957 236.371 176.444 236.371 189.119C236.371 201.083 247.878 207.88 259.933 215.001C272.445 222.392 285.548 230.132 286.986 244.361C297.104 229.138 303 210.862 303 191.207C303 165.035 280.444 151.518 258.962 138.644C239.433 126.941 220.792 115.769 220.792 96.1052C220.792 75.2725 238.387 64.6102 254.587 54.794C257.484 53.0384 260.336 51.31 263.035 49.5553Z" fill="black"/>
</svg>
