<svg width="100" height="100" viewBox="0 0 100 100" fill="none" xmlns="http://www.w3.org/2000/svg">
<path opacity="0.5" d="M85.3553 14.2917L100 28.9364V100H29.6422L14.6447 85.0024C7.75305 78.1108 7.81956 66.8708 14.7932 59.8972L60.2501 14.4403C67.2237 7.46664 78.4637 7.40013 85.3553 14.2917Z" fill="#272727"/>
<path fill-rule="evenodd" clip-rule="evenodd" d="M14.7932 59.8971C7.81957 66.8708 7.75305 78.1108 14.6447 85.0024C21.5363 91.894 32.7763 91.8275 39.7499 84.8538L85.2068 39.397C92.1804 32.4233 92.2469 21.1833 85.3553 14.2917C78.4637 7.40012 67.2237 7.46662 60.2501 14.4403L14.7932 59.8971ZM33.692 47.9863C30.763 50.9152 30.7351 55.636 33.6296 58.5305L40.6175 65.5183C43.5119 68.4128 48.2327 68.3849 51.1617 65.4559L65.8089 50.8087C68.7378 47.8798 68.7658 43.159 65.8713 40.2645L58.8834 33.2766C55.9889 30.3822 51.2681 30.4101 48.3392 33.339L33.692 47.9863ZM34.3426 65.3044C35.7209 66.6827 35.7077 68.9307 34.3129 70.3255C32.9182 71.7202 30.6702 71.7335 29.2919 70.3552C27.9136 68.9769 27.9268 66.7289 29.3216 65.3341C30.7163 63.9394 32.9643 63.9261 34.3426 65.3044ZM40.3025 76.3151C41.6973 74.9204 41.7106 72.6724 40.3322 71.294C38.9539 69.9157 36.7059 69.929 35.3112 71.3237C33.9165 72.7185 33.9032 74.9665 35.2815 76.3448C36.6598 77.7231 38.9078 77.7098 40.3025 76.3151ZM27.8539 58.8157C29.2322 60.194 29.2189 62.442 27.8242 63.8367C26.4294 65.2315 24.1814 65.2448 22.8031 63.8664C21.4248 62.4881 21.4381 60.2401 22.8328 58.8454C24.2276 57.4507 26.4756 57.4374 27.8539 58.8157ZM27.7469 76.8915C29.1417 75.4967 29.155 73.2487 27.7766 71.8704C26.3983 70.4921 24.1503 70.5054 22.7556 71.9001C21.3609 73.2949 21.3476 75.5429 22.7259 76.9212C24.1042 78.2995 26.3522 78.2862 27.7469 76.8915ZM33.7663 77.86C35.1446 79.2383 35.1313 81.4863 33.7365 82.8811C32.3418 84.2758 30.0938 84.2891 28.7155 82.9108C27.3372 81.5325 27.3505 79.2845 28.7452 77.8897C30.1399 76.495 32.3879 76.4817 33.7663 77.86ZM21.2582 70.4027C22.6529 69.008 22.6662 66.76 21.2879 65.3817C19.9096 64.0034 17.6616 64.0167 16.2668 65.4114C14.8721 66.8061 14.8588 69.0541 16.2371 70.4324C17.6155 71.8108 19.8635 71.7975 21.2582 70.4027ZM77.2741 22.3729C78.6524 23.7513 78.6391 25.9993 77.2444 27.394C75.8497 28.7887 73.6017 28.802 72.2234 27.4237C70.845 26.0454 70.8583 23.7974 72.2531 22.4027C73.6478 21.0079 75.8958 20.9946 77.2741 22.3729ZM83.234 33.3836C84.6287 31.9889 84.642 29.7409 83.2637 28.3626C81.8854 26.9842 79.6374 26.9975 78.2427 28.3923C76.848 29.787 76.8346 32.035 78.213 33.4133C79.5913 34.7916 81.8393 34.7783 83.234 33.3836ZM70.7854 15.8842C72.1637 17.2625 72.1504 19.5105 70.7557 20.9053C69.3609 22.3 67.1129 22.3133 65.7346 20.935C64.3563 19.5566 64.3696 17.3086 65.7643 15.9139C67.159 14.5192 69.4071 14.5059 70.7854 15.8842ZM70.6784 33.96C72.0731 32.5653 72.0864 30.3173 70.7081 28.9389C69.3298 27.5606 67.0818 27.5739 65.6871 28.9686C64.2924 30.3634 64.279 32.6114 65.6574 33.9897C67.0357 35.368 69.2837 35.3547 70.6784 33.96ZM76.6977 34.9285C78.0761 36.3069 78.0628 38.5549 76.668 39.9496C75.2733 41.3443 73.0253 41.3576 71.647 39.9793C70.2687 38.601 70.282 36.353 71.6767 34.9583C73.0714 33.5635 75.3194 33.5502 76.6977 34.9285ZM64.1897 27.4712C65.5844 26.0765 65.5977 23.8285 64.2194 22.4502C62.8411 21.0719 60.5931 21.0852 59.1983 22.4799C57.8036 23.8746 57.7903 26.1226 59.1686 27.501C60.5469 28.8793 62.7949 28.866 64.1897 27.4712Z" fill="white"/>
</svg>
