<svg width="100" height="100" viewBox="0 0 100 100" fill="none" xmlns="http://www.w3.org/2000/svg">
<path opacity="0.5" d="M100 38.3504L69.8458 8.19611C68.6884 8.06653 67.512 8 66.32 8C53.5553 8 42.5761 15.6323 37.713 26.5738C35.9947 30.44 35.04 34.7197 35.04 39.2217C35.04 40.6074 35.1304 41.9721 35.3058 43.3101L26.0922 34.0965C19.8608 40.248 16 48.7871 16 58.2263C16 67.5887 19.7984 76.0657 25.9409 82.2056L43.7353 100H100V38.3504Z" fill="#272727"/>
<path d="M69.8458 8.19611C68.6884 8.06653 67.512 8 66.32 8C53.5553 8 42.5761 15.6323 37.713 26.5738C35.9947 30.44 35.04 34.7197 35.04 39.2217C35.04 48.1168 38.7666 56.143 44.7465 61.8297C44.8076 61.8878 44.869 61.9456 44.9305 62.0032C33.9252 60.2316 25.52 50.7064 25.52 39.2217C25.52 37.4603 25.7177 35.7449 26.0922 34.0965C19.8608 40.248 16 48.7871 16 58.2263C16 73.9109 26.6601 87.1102 41.1432 91C38.1788 87.4395 36.4 82.8867 36.4 77.9251C36.4 72.1822 38.7832 66.9868 42.6296 63.2441C42.3984 64.247 42.2764 65.2907 42.2764 66.3624C42.2764 73.35 47.4647 79.1452 54.2579 80.2231C54.2199 80.1881 54.182 80.1529 54.1443 80.1176C50.4531 76.6576 48.1528 71.7743 48.1528 66.3624C48.1528 63.6232 48.7421 61.0195 49.8028 58.6671C52.8046 52.0101 59.5817 47.3665 67.4609 47.3665C68.1967 47.3665 68.9229 47.407 69.6373 47.4858C69.0472 47.8629 68.4237 48.2343 67.7904 48.6116C64.249 50.7209 60.4022 53.0121 60.4022 57.4889C60.4022 61.7144 64.4776 64.1151 68.7469 66.63C73.1786 69.2405 77.8192 71.9742 78.3282 76.9998C81.9118 71.6232 84 65.1681 84 58.2263C84 48.9826 76.0115 44.2083 68.4033 39.6615C61.4867 35.528 54.8846 31.5823 54.8846 24.6372C54.8846 17.2792 61.1163 13.5134 66.8536 10.0464C67.8796 9.42632 68.8898 8.81586 69.8458 8.19611Z" fill="white"/>
</svg>
