<svg width="264" height="264" viewBox="0 0 264 264" fill="none" xmlns="http://www.w3.org/2000/svg">
<g clip-path="url(#clip0_152_2)">
<rect width="264" height="264" fill="#326CE5"/>
<path d="M104.956 88.4975L131.128 37L195.914 101.786C205.056 99.5983 208.134 93.0714 208.134 93.0714L278.844 163.782C278.844 163.782 294.711 179.298 294.711 203.045C294.711 226.791 285.632 235.452 274.467 242.958C273.532 243.587 272.539 244.19 271.493 244.764C270.684 245.207 269.844 245.632 268.973 246.037L275.412 252.476L281.63 264.711H122.047L51.3365 194L57.9405 181.006C62.3287 183.554 67.4574 185.61 73.1133 186.973L51.2051 165.064C44.5664 158.429 40 149.176 40 132.334C40 108.587 55.8664 93.0714 55.8664 93.0714L62.2626 99.4677C67.4523 102.523 76.2852 104.487 90.4594 99.182C93.8105 97.9277 97.2131 97.2523 100.589 97.0898C106.102 96.8245 111.543 97.9273 116.569 100.111L104.956 88.4975Z" fill="#272727" style="mix-blend-mode:overlay"/>
<path d="M57.9405 181.006L51.3365 194H210.919L204.702 181.766C190.945 189.183 170.58 191.89 149.547 184.273C143.04 181.916 137.097 178.525 132 174.304C126.903 178.525 120.96 181.916 114.453 184.273C92.7166 192.145 71.693 188.99 57.9405 181.006Z" fill="white"/>
<path d="M61.8676 173.279C73.2294 180.094 91.7639 183.304 111.455 176.172C116.764 174.249 121.591 171.54 125.747 168.222C128.047 166.385 130.142 164.362 132 162.182C133.858 164.362 135.953 166.385 138.253 168.222C142.409 171.54 147.236 174.249 152.545 176.172C171.474 183.028 189.335 180.327 200.782 174.053L161.648 97.0513C153.152 97.0879 144.916 100.323 138.207 105.693C135.949 107.501 133.864 109.55 132 111.8C130.136 109.55 128.051 107.501 125.793 105.693C118.62 99.952 109.703 96.6512 100.589 97.0898L61.8676 173.279Z" fill="white"/>
<path d="M104.956 88.4975C114.981 89.1461 124.427 93.308 132 99.5877C139.151 93.6584 147.971 89.6171 157.372 88.6386L131.128 37L104.956 88.4975Z" fill="white"/>
<path d="M140.136 127.362C145.934 148.623 132.474 168.56 111.455 176.172C90.7952 183.655 71.4086 179.754 60.2435 172.247C49.0784 164.741 40 156.081 40 132.334C40 108.587 55.8664 93.0714 55.8664 93.0714C55.8664 93.0714 63.5058 109.271 90.4594 99.182C111.393 91.3465 134.338 106.102 140.136 127.362Z" fill="white"/>
<path d="M123.864 127.362C118.066 148.623 131.526 168.56 152.545 176.172C173.205 183.655 192.591 179.754 203.756 172.247C214.922 164.741 224 156.081 224 132.334C224 108.587 208.134 93.0714 208.134 93.0714C208.134 93.0714 200.494 109.271 173.541 99.182C152.607 91.3465 129.662 106.102 123.864 127.362Z" fill="white"/>
</g>
<defs>
<clipPath id="clip0_152_2">
<rect width="264" height="264" fill="white"/>
</clipPath>
</defs>
</svg>
