<svg width="450" height="450" viewBox="0 0 450 450" fill="none" xmlns="http://www.w3.org/2000/svg">
<path fill-rule="evenodd" clip-rule="evenodd" d="M150.305 218.188C150.588 218.396 150.921 218.61 151.31 218.815C153.011 219.712 158.678 221.974 171.535 217.172C176.984 215.137 182.545 214.033 188.065 213.768C201.939 213.102 215.098 217.73 225.682 225.428C225.788 225.505 225.894 225.583 226 225.661C235.927 218.349 248.114 213.761 261.061 213.705C267.508 213.677 274.059 214.78 280.465 217.172C291.594 221.328 297.336 220.192 299.781 219.23C296.835 180.505 264.48 150 225 150C185.875 150 153.747 179.959 150.305 218.188Z" fill="black"/>
</svg>
