<svg width="450" height="450" viewBox="0 0 450 450" fill="none" xmlns="http://www.w3.org/2000/svg">
<path d="M233.354 238.922C230.679 241.058 228.208 243.48 226 246.141C225.844 245.953 225.686 245.766 225.527 245.58C223.441 243.139 221.132 240.907 218.646 238.922C218.06 238.453 217.464 237.999 216.859 237.559C208.689 231.617 198.838 228.268 188.785 228.751C184.785 228.943 180.754 229.741 176.783 231.224C144.849 243.151 135.798 224 135.798 224C135.798 224 117 242.343 117 270.416C117 298.489 127.756 308.728 140.984 317.601C142.638 318.71 144.443 319.753 146.385 320.711C159.978 327.417 180.241 329.981 201.659 322.241C207.949 319.968 213.667 316.765 218.591 312.843L218.612 312.826C221.329 310.659 223.805 308.273 226 305.702C228.201 308.279 230.683 310.671 233.409 312.843C238.333 316.765 244.051 319.968 250.341 322.241C272.768 330.346 293.929 327.153 307.492 319.736C308.731 319.058 309.908 318.344 311.016 317.601C324.244 308.728 335 298.489 335 270.416C335 242.343 316.202 224 316.202 224C316.202 224 307.151 243.151 275.217 231.224C270.554 229.482 265.807 228.685 261.126 228.705C251.06 228.748 241.303 232.573 233.354 238.922Z" fill="black"/>
</svg>
