<svg width="200" height="200" viewBox="0 0 200 200" fill="none" xmlns="http://www.w3.org/2000/svg">
<g clip-path="url(#clip0_166_2)">
<path d="M25.9405 165.006L19.3365 178H178.919L172.702 165.766C158.945 173.183 138.58 175.89 117.547 168.273C111.04 165.916 105.097 162.525 100 158.304C94.9031 162.525 88.9605 165.916 82.4533 168.273C60.7166 176.145 39.693 172.99 25.9405 165.006Z" fill="white"/>
<path d="M72.9556 72.4975C82.981 73.1461 92.4269 77.308 100 83.5877C107.151 77.6584 115.971 73.6171 125.372 72.6386L99.128 21L72.9556 72.4975Z" fill="white"/>
<path d="M108.136 111.362C113.934 132.623 100.474 152.56 79.4552 160.172C58.7952 167.655 39.4086 163.754 28.2435 156.247C17.0784 148.741 7.99999 140.081 8 116.334C8.00001 92.5873 23.8664 77.0714 23.8664 77.0714C23.8664 77.0714 31.5058 93.2708 58.4594 83.182C79.393 75.3465 102.338 90.1021 108.136 111.362Z" fill="white"/>
<path d="M91.864 111.362C86.0661 132.623 99.5261 152.56 120.545 160.172C141.205 167.655 160.591 163.754 171.756 156.247C182.922 148.741 192 140.081 192 116.334C192 92.5873 176.134 77.0714 176.134 77.0714C176.134 77.0714 168.494 93.2708 141.541 83.182C120.607 75.3465 97.6618 90.1021 91.864 111.362Z" fill="white"/>
</g>
<defs>
<clipPath id="clip0_166_2">
<rect width="200" height="200" fill="white"/>
</clipPath>
</defs>
</svg>
