<svg width="100" height="100" viewBox="0 0 100 100" fill="none" xmlns="http://www.w3.org/2000/svg">
<g clip-path="url(#clip0_31_140)">
<path d="M80.0128 4.3933L100 24.3805V100H24.3805L12.0652 87.6848C11.9868 87.6063 11.9866 87.4793 12.0648 87.4011L25.9425 73.5233C26.0207 73.4451 26.1477 73.4453 26.2262 73.5238L24.2372 71.5348C23.8449 71.1425 23.8438 70.5074 24.2349 70.1164L26.359 67.9922L24.6541 66.2874C24.0264 65.6597 24.0247 64.6436 24.6504 64.0179L65.7172 22.9511L57.9032 15.1371C57.5108 14.7448 57.5098 14.1097 57.9009 13.7187L59.0337 12.5858C59.4248 12.1948 60.0598 12.1958 60.4522 12.5881L69.6869 21.8229L80.7324 10.7773L77.1806 7.2255C76.7883 6.83318 76.7873 6.19813 77.1783 5.80709L78.5944 4.39099C78.9854 3.99995 79.6205 4.00099 80.0128 4.3933Z" fill="#272727" fill-opacity="0.5"/>
<path d="M50.3496 49.5752C50.4458 49.4789 50.4456 49.3227 50.3491 49.2262L47.837 46.7142C47.7069 46.5841 47.7592 46.3629 47.9335 46.3055L55.4229 43.8402C55.6697 43.7589 55.859 44.0657 55.6754 44.2493L52.5372 47.3875C52.441 47.4837 52.4412 47.64 52.5377 47.7365L55.0497 50.2485C55.1798 50.3786 55.1276 50.5997 54.9532 50.6571L47.4638 53.1225C47.217 53.2037 47.0277 52.897 47.2114 52.7134L50.3496 49.5752Z" fill="white"/>
<path fill-rule="evenodd" clip-rule="evenodd" d="M78.5944 4.39097C78.9854 3.99993 79.6205 4.00097 80.0128 4.39328L95.3567 19.7372C95.749 20.1295 95.7501 20.7645 95.359 21.1556L93.9429 22.5717C93.5519 22.9627 92.9168 22.9617 92.5245 22.5694L88.9727 19.0175L77.9271 30.0631L87.1619 39.2978C87.5542 39.6902 87.5552 40.3252 87.1642 40.7162L86.0313 41.8491C85.6403 42.2402 85.0052 42.2391 84.6129 41.8468L76.7989 34.0328L35.7321 75.0996C35.1064 75.7252 34.0904 75.7236 33.4626 75.0959L31.7578 73.391L29.6336 75.5151C29.2426 75.9062 28.6075 75.9051 28.2152 75.5128L26.2262 73.5238L24.2372 71.5348C23.8449 71.1424 23.8438 70.5074 24.2349 70.1164L26.359 67.9922L24.6541 66.2873C24.0264 65.6596 24.0247 64.6436 24.6504 64.0179L65.7172 22.9511L57.9032 15.1371C57.5108 14.7448 57.5098 14.1097 57.9009 13.7187L59.0337 12.5858C59.4248 12.1947 60.0598 12.1958 60.4521 12.5881L69.6869 21.8229L80.7324 10.7773L77.1806 7.22548C76.7883 6.83316 76.7873 6.19811 77.1783 5.80707L78.5944 4.39097ZM57.0974 36.5373C56.3254 35.7653 55.0755 35.7635 54.3057 36.5334L39.3212 51.5179C38.5514 52.2877 38.5531 53.5376 39.3251 54.3096L45.6151 60.5996C46.3871 61.3716 47.637 61.3733 48.4068 60.6035L63.3913 45.619C64.1612 44.8492 64.1594 43.5993 63.3874 42.8273L57.0974 36.5373Z" fill="white"/>
<path d="M26.2262 73.5238C26.3047 73.6023 26.3049 73.7293 26.2267 73.8075L12.3489 87.6852C12.2707 87.7634 12.1437 87.7632 12.0652 87.6848C11.9868 87.6063 11.9866 87.4793 12.0648 87.4011L25.9425 73.5233C26.0207 73.4451 26.1477 73.4453 26.2262 73.5238Z" fill="white"/>
</g>
<defs>
<clipPath id="clip0_31_140">
<rect width="100" height="100" fill="white"/>
</clipPath>
</defs>
</svg>
