<svg width="100" height="100" viewBox="0 0 100 100" fill="none" xmlns="http://www.w3.org/2000/svg">
<g clip-path="url(#clip0_25_3)">
<g opacity="0.5">
<path d="M100 51.5707L75.8346 27.4052C75.7848 27.3549 75.7347 27.3047 75.6842 27.2548C68.5964 20.2484 57.1048 20.2484 50.017 27.2548L50 27.2716L75.5191 52.7906L50.0169 78L72.0169 100H100V51.5707Z" fill="#272727"/>
<path d="M72.0169 100L50 77.9832L49.9831 78L24.3159 52.6274L71.6884 100H72.0169Z" fill="#272727"/>
</g>
<path d="M49.9831 27.2548C42.8953 20.2484 31.4037 20.2484 24.3159 27.2548C17.228 34.2613 17.228 45.621 24.3159 52.6274L49.9831 78L50 77.9832L50.0169 78L75.6842 52.6274C82.772 45.621 82.772 34.2613 75.6842 27.2548C68.5964 20.2484 57.1048 20.2484 50.0169 27.2548L50 27.2716L49.9831 27.2548Z" fill="white"/>
</g>
<defs>
<clipPath id="clip0_25_3">
<rect width="100" height="100" fill="white"/>
</clipPath>
</defs>
</svg>
