<svg width="100" height="100" viewBox="0 0 100 100" fill="none" xmlns="http://www.w3.org/2000/svg">
<g clip-path="url(#clip0_26_121)">
<path opacity="0.5" d="M88.4594 10.6777L100 22.2183V100H22.2183L10.6777 88.4594C9.95367 87.7354 9.5089 86.8404 9.341 85.9064C8.86475 83.2569 12.3096 83.0248 14.2131 84.9283L14.4657 85.1808C12.4636 83.1787 12.5218 79.9152 14.5941 77.9858L25.5018 67.8304L16.0299 58.3584C13.101 55.4295 13.101 50.6808 16.0299 47.7518C18.9588 44.8229 23.7076 44.8229 26.6365 47.7518L32.8461 53.9614C34.1631 52.2038 66.092 9.63127 68.9804 9.35582C71.8084 9.08613 86.0439 9.407 88.4594 10.6777Z" fill="#272727"/>
<path d="M16.0299 58.3584C13.101 55.4295 13.101 50.6808 16.0299 47.7518C18.9588 44.8229 23.7076 44.8229 26.6365 47.7518L32.8461 53.9614C34.1632 52.2037 66.092 9.63127 68.9804 9.35582C71.8084 9.08613 86.0439 9.407 88.4594 10.6777C89.7301 13.0931 90.0137 27.366 89.744 30.194C89.4685 33.0824 46.9327 64.9748 45.1757 66.291L51.3852 72.5006C54.3142 75.4295 54.3142 80.1782 51.3852 83.1072C48.4563 86.0361 43.7076 86.0361 40.7786 83.1072L31.3067 73.6352L17.6203 88.3355C15.7586 90.3351 12.6095 90.3913 10.6777 88.4594C8.7458 86.5275 8.80202 83.3785 10.8016 81.5168L25.5 67.8285L16.0299 58.3584Z" fill="white"/>
</g>
<defs>
<clipPath id="clip0_26_121">
<rect width="100" height="100" fill="white"/>
</clipPath>
</defs>
</svg>
