<svg width="100" height="100" viewBox="0 0 100 100" fill="none" xmlns="http://www.w3.org/2000/svg">
<g opacity="0.5">
<path d="M77.2502 23.7723L100 46.522V100H35.1325L17.529 82.3964C16.4304 81.2984 15.597 79.9056 15.1661 78.2975C14.6745 76.4631 14.7767 74.6095 15.3549 72.9407L8.32998 65.9158C7.85917 65.4452 7.50198 64.8483 7.31731 64.1591C6.75668 62.0668 7.99833 59.9162 10.0906 59.3556C11.4937 58.9796 12.923 59.4141 13.8814 60.3721L13.8827 60.3735L18.3267 64.8174C16.0493 55.4463 21.4506 45.9269 30.6118 43.0468L23.7839 36.2189C22.0743 34.5101 21.0129 32.1528 21.0001 29.5477L18.0278 26.5753C17.557 26.1047 17.1998 25.5078 17.0151 24.8186C16.4545 22.7264 17.6961 20.5757 19.7884 20.0151C21.1915 19.6392 22.6207 20.0737 23.5792 21.0317L23.5805 21.033L24.6007 22.0532C26.2211 20.7677 28.2709 20 30.5 20C33.1226 20 35.4971 21.0627 37.2161 22.7811L37.2189 22.7839L47.5604 33.1254C50.1313 32.6705 52.6886 33.0078 54.9579 33.9787C54.6011 29.2397 56.8702 24.7057 60.7578 22.1218L54.3187 15.6827C53.504 14.8683 53 13.743 53 12.5C53 10.0147 55.0147 8 57.5 8C58.7423 8 59.867 8.50342 60.6813 9.31732L60.6826 9.31866L71.8947 20.5307C73.9109 21.1623 75.7529 22.2756 77.2502 23.7723Z" fill="#272727"/>
<path d="M93.1703 23.2295L100 30.0592V43.0034L86.6893 29.6927C86.14 29.1437 85.7233 28.4473 85.5078 27.6432C84.8538 25.2022 86.3024 22.6932 88.7433 22.0391C90.3803 21.6005 92.0478 22.1075 93.166 23.2252L93.1674 23.2266L93.1703 23.2295Z" fill="#272727"/>
</g>
<path d="M32.8452 73.5603C34.1533 78.4423 31.2561 83.4604 26.3742 84.7685C21.4922 86.0766 16.4742 83.1794 15.1661 78.2975C13.8579 73.4155 16.7551 68.3974 21.6371 67.0893C26.519 65.7812 31.5371 68.6784 32.8452 73.5603Z" fill="white"/>
<path d="M53.793 55.7662C56.4093 65.5302 50.6149 75.5663 40.851 78.1825C31.0871 80.7987 21.051 75.0044 18.4347 65.2405C15.8185 55.4765 21.6129 45.4404 31.3768 42.8242C41.1407 40.208 51.1768 46.0023 53.793 55.7662Z" fill="white"/>
<path d="M72.1489 53.5547C73.6439 59.1341 70.3328 64.869 64.7535 66.364C59.1741 67.859 53.4392 64.5479 51.9442 58.9686C50.4492 53.3892 53.7602 47.6543 59.3396 46.1593C64.919 44.6643 70.6539 47.9753 72.1489 53.5547Z" fill="white"/>
<path d="M72.8135 45.9326C73.6544 49.071 71.792 52.2969 68.6536 53.1378C65.5152 53.9788 62.2893 52.1163 61.4483 48.9779C60.6074 45.8395 62.4699 42.6136 65.6083 41.7727C68.7467 40.9317 71.9726 42.7942 72.8135 45.9326Z" fill="white"/>
<path d="M62.4513 42.6186C64.32 49.5928 60.1812 56.7615 53.207 58.6302C46.2327 60.4989 39.0641 56.3601 37.1954 49.3859C35.3266 42.4117 39.4654 35.243 46.4397 33.3743C53.4139 31.5055 60.5825 35.6444 62.4513 42.6186Z" fill="white"/>
<path d="M80.6258 29.628C82.4946 36.6022 78.3557 43.7708 71.3815 45.6396C64.4073 47.5083 57.2386 43.3695 55.3699 36.3953C53.5012 29.421 57.64 22.2524 64.6142 20.3837C71.5884 18.5149 78.7571 22.6537 80.6258 29.628Z" fill="white"/>
<path d="M92.7154 43.6614C94.5891 50.6541 90.4393 57.8417 83.4466 59.7154C76.4539 61.5891 69.2663 57.4393 67.3926 50.4466C65.5189 43.4539 69.6687 36.2663 76.6614 34.3926C83.6541 32.5189 90.8417 36.6687 92.7154 43.6614Z" fill="white"/>
<path d="M94.3474 25.2746C95.0015 27.7156 93.5529 30.2246 91.1119 30.8787C88.6709 31.5327 86.1619 30.0842 85.5078 27.6432C84.8538 25.2022 86.3024 22.6932 88.7433 22.0391C91.1843 21.3851 93.6934 22.8336 94.3474 25.2746Z" fill="white"/>
<path d="M91.9436 77.0616C92.3966 78.7525 91.3932 80.4905 89.7023 80.9436C88.0114 81.3966 86.2734 80.3932 85.8204 78.7023C85.3673 77.0114 86.3707 75.2734 88.0616 74.8203C89.7525 74.3673 91.4905 75.3707 91.9436 77.0616Z" fill="white"/>
<path d="M79.3302 90.9093C79.6127 91.9638 78.987 93.0476 77.9325 93.3302C76.878 93.6127 75.7941 92.987 75.5116 91.9325C75.2291 90.878 75.8548 89.7941 76.9093 89.5116C77.9638 89.2291 79.0476 89.8548 79.3302 90.9093Z" fill="white"/>
<path d="M24.5919 22.7884C25.1525 24.8807 23.9108 27.0313 21.8186 27.5919C19.7263 28.1525 17.5757 26.9109 17.0151 24.8186C16.4545 22.7263 17.6961 20.5757 19.7884 20.0151C21.8807 19.4545 24.0313 20.6961 24.5919 22.7884Z" fill="white"/>
<path d="M14.8941 62.1289C15.4547 64.2211 14.2131 66.3717 12.1208 66.9323C10.0285 67.493 7.87793 66.2513 7.31731 64.1591C6.75668 62.0668 7.99833 59.9162 10.0906 59.3556C12.1829 58.7949 14.3335 60.0366 14.8941 62.1289Z" fill="white"/>
<path d="M57.4365 74.4152C57.7168 75.4613 57.096 76.5366 56.0499 76.8169C55.0037 77.0972 53.9284 76.4764 53.6481 75.4303C53.3678 74.3841 53.9886 73.3088 55.0348 73.0285C56.0809 72.7482 57.1562 73.369 57.4365 74.4152Z" fill="white"/>
<path d="M88 62.5C88 67.7467 83.7467 72 78.5 72C73.2533 72 69 67.7467 69 62.5C69 57.2533 73.2533 53 78.5 53C83.7467 53 88 57.2533 88 62.5Z" fill="white"/>
<path d="M81 74C81 82.8366 73.8366 90 65 90C56.1634 90 49 82.8366 49 74C49 65.1634 56.1634 58 65 58C73.8366 58 81 65.1634 81 74Z" fill="white"/>
<path d="M62 77.5C62 82.7467 57.7467 87 52.5 87C47.2533 87 43 82.7467 43 77.5C43 72.2533 47.2533 68 52.5 68C57.7467 68 62 72.2533 62 77.5Z" fill="white"/>
<path d="M43 88.5C43 90.9853 40.9853 93 38.5 93C36.0147 93 34 90.9853 34 88.5C34 86.0147 36.0147 84 38.5 84C40.9853 84 43 86.0147 43 88.5Z" fill="white"/>
<path d="M62 12.5C62 14.9853 59.9853 17 57.5 17C55.0147 17 53 14.9853 53 12.5C53 10.0147 55.0147 8 57.5 8C59.9853 8 62 10.0147 62 12.5Z" fill="white"/>
<path d="M40 29.5C40 34.7467 35.7467 39 30.5 39C25.2533 39 21 34.7467 21 29.5C21 24.2533 25.2533 20 30.5 20C35.7467 20 40 24.2533 40 29.5Z" fill="white"/>
</svg>
