<svg width="450" height="450" viewBox="0 0 450 450" fill="none" xmlns="http://www.w3.org/2000/svg">
<path d="M150 97.0003C122.32 97.095 99 121.683 99 152V171C99 174.314 101.454 177 104.481 177H106.309C109.336 177 111.722 174.275 112.44 171.055C114.877 160.118 123.887 152 134.63 152H150V225C150 266.421 183.579 300 225 300C266.421 300 300 266.421 300 225C300 183.579 266.421 150 225 150C204.81 150 186.483 157.978 173 170.954V108.5C173 102.149 167.851 97 161.5 97H150.16L150 97.0003Z" fill="black"/>
</svg>
