<svg width="200" height="200" viewBox="0 0 200 200" fill="none" xmlns="http://www.w3.org/2000/svg">
<g clip-path="url(#clip0_1_2)">
<rect width="200" height="200" rx="20" fill="#326CE5"/>
<path d="M72.9556 72.4975L99.128 21L163.914 85.786C173.056 83.5983 176.134 77.0714 176.134 77.0714L246.844 147.782C246.844 147.782 262.711 163.298 262.711 187.045C262.711 210.791 253.632 219.452 242.467 226.958C241.532 227.587 240.539 228.19 239.493 228.764C238.684 229.207 237.844 229.632 236.973 230.037L243.412 236.476L249.63 248.711H90.0472L19.3365 178L25.9405 165.006C30.3287 167.554 35.4574 169.61 41.1133 170.973L19.2051 149.064C12.5664 142.429 8 133.176 8 116.334C8.00001 92.5872 23.8664 77.0714 23.8664 77.0714L30.2626 83.4677C35.4523 86.5231 44.2852 88.4874 58.4594 83.182C61.8105 81.9277 65.2131 81.2523 68.5887 81.0898C74.1017 80.8245 79.5426 81.9273 84.5689 84.1108L72.9556 72.4975Z" fill="#272727" style="mix-blend-mode:overlay"/>
<path d="M25.9405 165.006L19.3365 178H178.919L172.702 165.766C158.945 173.183 138.58 175.89 117.547 168.273C111.04 165.916 105.097 162.525 100 158.304C94.9031 162.525 88.9605 165.916 82.4533 168.273C60.7166 176.145 39.693 172.99 25.9405 165.006Z" fill="white"/>
<path d="M29.8676 157.279C41.2294 164.094 59.7639 167.304 79.4552 160.172C84.7641 158.249 89.5908 155.54 93.7468 152.222C96.0474 150.385 98.1424 148.362 100 146.182C101.858 148.362 103.953 150.385 106.253 152.222C110.409 155.54 115.236 158.249 120.545 160.172C139.474 167.028 157.335 164.327 168.782 158.053L129.648 81.0513C121.152 81.0879 112.916 84.323 106.207 89.6934C103.949 91.5006 101.864 93.5496 100 95.7999C98.1361 93.5496 96.0511 91.5006 93.7932 89.6934C86.6203 83.952 77.7031 80.6512 68.5887 81.0898L29.8676 157.279Z" fill="white"/>
<path d="M72.9556 72.4975C82.981 73.1461 92.4269 77.308 100 83.5877C107.151 77.6584 115.971 73.6171 125.372 72.6386L99.128 21L72.9556 72.4975Z" fill="white"/>
<path d="M108.136 111.362C113.934 132.623 100.474 152.56 79.4552 160.172C58.7952 167.655 39.4086 163.754 28.2435 156.247C17.0784 148.741 7.99999 140.081 8 116.334C8.00001 92.5873 23.8664 77.0714 23.8664 77.0714C23.8664 77.0714 31.5058 93.2708 58.4594 83.182C79.393 75.3465 102.338 90.1021 108.136 111.362Z" fill="white"/>
<path d="M91.864 111.362C86.0661 132.623 99.5261 152.56 120.545 160.172C141.205 167.655 160.591 163.754 171.756 156.247C182.922 148.741 192 140.081 192 116.334C192 92.5873 176.134 77.0714 176.134 77.0714C176.134 77.0714 168.494 93.2708 141.541 83.182C120.607 75.3465 97.6618 90.1021 91.864 111.362Z" fill="white"/>
</g>
<defs>
<clipPath id="clip0_1_2">
<rect width="200" height="200" rx="20" fill="white"/>
</clipPath>
</defs>
</svg>
